<svg height="512" viewBox="0 0 384 384" width="512" xmlns="http://www.w3.org/2000/svg" xmlns:xlink="http://www.w3.org/1999/xlink"><filter id="a" color-interpolation-filters="sRGB" height="1.1162" width="1.1162" x="-.05808" y="-.05808"><feGaussianBlur stdDeviation="8.6131585"/></filter><path d="m190.4 14.843c-1.498 0-2.9903.02033-4.4795.05713-.15408.0038-.30743.01045-.46142.01465-7.0857.19322-14.065.80799-20.921 1.8062-.90182.13129-1.8009.26978-2.6982.41455-2.4517.39555-4.891.82958-7.3081 1.3242-1.0444.21373-2.0824.44628-3.1201.67822-5.6507 1.263-11.2 2.7957-16.633 4.582-.48463.15932-.97327.30978-1.4561.47314-.001.000346-.002.0011-.003.0015-.40702.13774-.80866.28714-1.2144.42773-3.464 1.2004-6.8806 2.5021-10.244 3.9067-.24316.10157-.48981.19622-.73242.29883-.001.000424-.002.001-.003.0015-1.3297.56241-2.651 1.1393-3.9639 1.7329-.00099.000448-.002.001-.003.0015-.0861.03891-.17036.08107-.25634.12012-2.5306 1.149-5.0314 2.3529-7.4971 3.6152-.008.004-.0157.0077-.0234.01172-.13428.06877-.26583.14183-.3999.21094-1.143.58913-2.2817 1.1858-3.4102 1.7988-.00058.000314-.00089.0011-.001.0015-1.2602.68458-2.5114 1.3837-3.7529 2.0977-.00058.000332-.0009.0011-.001.0015-1.2416.71392-2.4733 1.4428-3.6958 2.1855-.00093.000566-.002.0009-.0029.0015-1.2221.74258-2.4346 1.4995-3.6372 2.2705-.000915.000587-.002.000878-.0029.0015-1.2026.77098-2.3946 1.5566-3.5772 2.3555-.000892.000606-.002.000858-.0029.0015-1.1825.79892-2.355 1.6111-3.5171 2.4375-.000886.000627-.0021.000839-.0029.0015-1.162.82639-2.313 1.6676-3.4541 2.521-.000862.000644-.0021.00082-.0029.0015-1.1411.85339-2.2714 1.7202-3.3911 2.6001-.85013.66806-1.6878 1.3501-2.5254 2.0332-.26664.21748-.53885.42847-.8042.64746-.000532.000437-.000937.001-.0015.0015-1.0981.90624-2.185 1.825-3.2607 2.7568-.000801.000695-.0021.000771-.0029.0015-1.0755.93162-2.1392 1.8777-3.1919 2.8345-.00078.000708-.0021.000755-.0029.0015-1.0526.95677-2.0922 1.9263-3.1216 2.9077-.000758.000723-.0022.000742-.0029.0015-1.0294.98145-2.0471 1.9753-3.0527 2.981-3.0194 3.0194-5.9304 6.1459-8.7275 9.375-.000451.000521-.001.000944-.0015.0015-.93183 1.0758-1.8506 2.1626-2.7568 3.2607-.000875.0011-.0021.0019-.0029.0029-6.2424 7.5642-11.866 15.656-16.806 24.193-.08196.14162-.16891.28-.25049.42187-.000543.00095-.000922.002-.0015.003-.08386.14584-.16264.29482-.24609.44092-1.3379 2.3421-2.6284 4.7134-3.8613 7.1206-.0003.00059-.0012.00087-.0015.001-12.446 24.3-19.469 51.839-19.469 81.018 0 4.6068.17625 9.1718.52002 13.69.000036.00048-.000037.00098 0 .001.11459 1.5059.24807 3.0078.3999 4.5029.000049.00048-.000049.00099 0 .001.45562 4.4865 1.0777 8.9235 1.8604 13.305.000084.00047-.000085.00098 0 .001.26083 1.4602.54021 2.9132.83642 4.3608.000096.00048-.000096.001 0 .001.59255 2.8958 1.255 5.7662 1.9863 8.6089.000117.00046-.000119.001 0 .001.36563 1.4211.74882 2.8351 1.1484 4.2422.000128.00045-.000129.001 0 .001.39963 1.4071.81636 2.807 1.2495 4.1997.000139.00045-.000138.001 0 .001.43316 1.3927.88436 2.778 1.3506 4.1558.000148.00044-.000149.001 0 .001.46623 1.3778.94844 2.748 1.4473 4.1104.08666.23667.18043.46984.26807.70606h-.0029c.0891.24015.1853.47663.27539.7163.002.005.0038.0108.0059.0161.32981.87703.65582 1.7561.99902 2.6265.000168.00042-.000167.001 0 .001.06433.16314.13442.32343.19922.48633.0035.009.0068.0176.01025.0264.06769.17027.13982.33829.20801.5083.45157 1.1246.90908 2.2458 1.3828 3.3589.1646.38729.3381.76987.50537 1.1558.35451.81673.70445 1.636 1.0708 2.4463.000184.00042-.000183.001 0 .001.02982.0659.06239.13037.09229.19629.0033.007.0069.0146.01025.022.2938.64816.59945 1.2896.90088 1.9336.2932.626.58012 1.2559.88037 1.8779.01641.034.0319.0685.04834.10254h.0029c.59139 1.2231 1.1951 2.4387 1.8135 3.646.000199.00039-.000199.001 0 .001.01086.0212.02282.0418.03369.063.64451 1.2571 1.3027 2.5061 1.9761 3.7456.000206.00038-.000206.001 0 .001.6847 1.2604 1.3851 2.5112 2.0991 3.7529.000213.00036-.000213.001 0 .001 1.4283 2.4839 2.9161 4.9293 4.459 7.3359.000224.00035-.000223.001 0 .001 1.5429 2.4066 3.1421 4.7731 4.7959 7.0986.60302.84797 1.221 1.6856 1.8384 2.5225.22921.31066.45144.62691.68262.93603.000409.00054.0011.00092.0015.001.11247.15038.22984.29676.34277.44677 1.602 2.128 3.2457 4.2216 4.9395 6.2739.000242.00029-.000241.001 0 .001.90644 1.0983 1.8263 2.1848 2.7583 3.2608.000244.00028-.000244.001 0 .001.93206 1.076 1.8773 2.1402 2.8345 3.1934.000246.00027-.000245.001 0 .001.95722 1.0532 1.9287 2.0946 2.9106 3.1245.000246.00025-.000247.001 0 .001.98191 1.0299 1.9763 2.0466 2.9824 3.0527 12.076 12.076 25.881 22.426 41.01 30.645.00059.00031.00089.001.001.001 25.216 13.698 54.112 21.478 84.826 21.478 26.108 0 50.901-5.6208 73.238-15.719.00059-.00027.00086-.001.001-.001 6.5689-2.9699 12.925-6.3262 19.04-10.042.00057-.00034.00089-.001.001-.001 2.4455-1.4859 4.8524-3.0288 7.2188-4.6274.00056-.00038.00091-.001.001-.001 1.1829-.79912 2.3562-1.6124 3.5186-2.439.00055-.0004.00091-.001.001-.001 9.2893-6.606 17.916-14.082 25.764-22.308.0119-.0125.0247-.0241.0366-.0366.9819-1.0299 1.952-2.0714 2.9092-3.1245.00025-.00027-.00025-.001 0-.001 1.9146-2.1066 3.7797-4.2586 5.5928-6.4556.00025-.00029-.00024-.001 0-.001.90599-1.0978 1.8007-2.207 2.6807-3.3267.00067-.00084.00081-.002.001-.003.88034-1.1202 1.7478-2.2495 2.6016-3.3911.00023-.00032-.00024-.001 0-.001 2.5618-3.4256 5.0025-6.9456 7.3169-10.556.0006-.00092.00089-.002.001-.003 1.5424-2.4061 3.0296-4.8526 4.4575-7.3359.00021-.00037-.00021-.001 0-.001.70651-1.2287 1.3994-2.4664 2.0772-3.7134.00073-.001.00075-.003.001-.004.005-.009.01-.0175.0147-.0264l.006-.009c.0002-.00037-.00021-.001 0-.001.10584-.19485.2054-.39357.31054-.58887.27077-.50295.53379-1.0102.7998-1.5161.28848-.54846.58576-1.0917.86866-1.6436.0102-.02.0205-.04.0308-.0601.0002-.00038-.0002-.001 0-.001 1.7087-3.3361 3.3046-6.7383 4.8047-10.192.22526-.51867.45925-1.033.67969-1.5542.56264-1.3303 1.1096-2.6686 1.6406-4.0151.00017-.00042-.00017-.001 0-.001.53097-1.3466 1.0466-2.7011 1.5454-4.0635.00016-.00043-.00016-.001 0-.001.27107-.74037.52514-1.489.78662-2.2339.21993-.62659.44902-1.2482.66211-1.8779.46603-1.3772.91466-2.7622 1.3477-4.1543.00032-.001.001-.002.001-.003.43301-1.3922.85-2.7916 1.2495-4.1982.00026-.0009-.00026-.002 0-.003.17002-.59867.32537-1.2035.48926-1.8047.85431-3.134 1.6238-6.3021 2.3086-9.5024.11027-.51531.23113-1.027.33692-1.5439.00019-.00094-.00019-.002 0-.003.29622-1.4476.57559-2.9006.83643-4.3608.00008-.00048-.00009-.00099 0-.001.0432-.24164.0779-.48606.12011-.72803.68989-3.9574 1.2505-7.9589 1.6743-12.001.0202-.19248.0463-.38302.0659-.57569.00005-.00047-.00005-.00098 0-.001.15178-1.4947.28534-2.9961.3999-4.5015.00007-.00097-.00008-.002 0-.003.11457-1.5059.21025-3.0161.28711-4.5322.00002-.00048-.00003-.00097 0-.001.003-.0574.004-.1154.007-.17286.0864-1.7382.14103-3.4844.17724-5.2354.0258-1.2479.0483-2.4959.0483-3.75 0-49.144-19.919-93.633-52.124-125.84-1.0061-1.0061-2.0228-2.0005-3.0527-2.9824-.00026-.000247-.001.000247-.001 0-1.0299-.9819-2.0713-1.952-3.1245-2.9092-.00027-.000246-.001.000245-.001 0-3.1601-2.8721-6.4238-5.6334-9.7852-8.2749-1.1208-.88082-2.2518-1.7473-3.394-2.6016-2.2836-1.7078-4.609-3.3626-6.9756-4.9614-.00034-.000228-.001.000228-.001 0-1.1834-.7995-2.3766-1.5854-3.5801-2.3569-1.2035-.77155-2.4171-1.5288-3.6401-2.272-4.8922-2.9725-9.9378-5.7157-15.125-8.2148-.0004-.000192-.001.000192-.001 0-2.5929-1.2494-5.2214-2.4385-7.8823-3.564-.00042-.000176-.001.000176-.001 0-1.3303-.56264-2.6686-1.1097-4.0151-1.6406-.00043-.000167-.001.000167-.001 0-1.3466-.53096-2.7011-1.0466-4.0635-1.5454-.00044-.000159-.001.000158-.001 0-1.3624-.49882-2.7326-.9825-4.1103-1.4487-.00045-.000149-.001.000149-.001 0-1.3778-.46622-2.7631-.91596-4.1558-1.3491-.00045-.000139-.001.000139-.001 0-1.3927-.43315-2.7926-.84988-4.1997-1.2495-.00045-.000129-.001.000128-.001 0-1.4071-.39962-2.8211-.78281-4.2422-1.1484-.00046-.000118-.001.000118-.001 0-1.4211-.36561-2.8486-.71474-4.2832-1.0459-.00046-.000107-.001.000106-.001 0-4.3048-.99363-8.6689-1.8313-13.087-2.5063-.00048-.000073-.00098.000073-.001 0-7.3636-1.125-14.876-1.7989-22.507-1.9922-.00048-.000013-.00097.000012-.001 0-1.5259-.03865-3.057-.05859-4.5923-.05859z" filter="url(#a)" opacity=".3" transform="matrix(.96662 0 0 .96662 7.9565 5.638)"/><path d="m192 19.98c95.008 0 172.02 77.013 172.02 172.02 0 95.008-77.013 172.02-172.02 172.02-95.004 0-172.02-77.013-172.02-172.02 0-95.004 77.013-172.02 172.02-172.02z" fill="#4aaee6" stroke-width=".96662"/><g stroke-width="1.3333" transform="matrix(.72496 0 0 .72496 7.9545 8.5328)"><path d="m353.51 138.94-.0312.01c-96.104 1.4531-149.91 56.255-178.28 109.61-25.958 48.839-29.865 89.219-30.631 97.037h-109.26c2.9921 7.0592 6.3127 13.945 9.9492 20.635h107.38c2.9427 0 5.808-1.3333 7.7402-3.5469 1.0833-1.2916 1.8945-2.86 2.2539-4.5215.0416-.44272.0416-.88477 0-1.291 0 0 4.8385-48.876 30.953-98.006 24.375-45.812 67.703-90.103 145.05-97.035-46.021 92.125 2.3027 198.59 2.3027 198.59.35939.44271.80272.88409 1.2871 1.2852 1.776 2.6198 4.8385 4.3548 8.0156 4.5215h112.24c3.6366-6.6898 6.9571-13.576 9.9492-20.635h-114.45c-3.9531-8.8177-48.437-110.58 4.8809-190.86 1.3698-2.4114 1.7344-5.3893.96874-8.0508-.35938-1.651-1.166-3.2298-2.2598-4.5215-2.0521-2.1771-5.0742-3.3848-8.0586-3.2285z" opacity=".3"/><path d="m353.51 128.94-.0312.01c-96.104 1.4531-149.91 56.255-178.28 109.61-25.958 48.839-29.865 89.219-30.631 97.037h-113.23c2.6124 7.0413 5.5417 13.927 8.7852 20.635h112.51c2.9427 0 5.808-1.3333 7.7402-3.5469 1.0833-1.2917 1.8945-2.86 2.2539-4.5215.0416-.44271.0416-.88477 0-1.291 0 0 4.8385-48.876 30.953-98.006 24.375-45.812 67.703-90.103 145.05-97.035-46.021 92.125 2.3027 198.59 2.3027 198.59.35939.44271.80274.88411 1.2871 1.2852 1.776 2.6198 4.8385 4.3548 8.0156 4.5215h117.36c3.2435-6.7078 6.1747-13.593 8.7871-20.635h-118.41c-3.9531-8.8177-48.437-110.58 4.8809-190.86 1.3698-2.4114 1.7344-5.3893.96874-8.0508-.35937-1.651-1.166-3.2298-2.2598-4.5215-2.0521-2.1771-5.0742-3.3848-8.0586-3.2285z" fill="#0f2b5c"/><path d="m16.652 248.07c-.0344 1.6633-.06445 3.3285-.06445 5 0 131.05 106.23 237.28 237.28 237.28s237.28-106.23 237.28-237.28c0-1.6715-.0301-3.3367-.0645-5-2.6631 128.74-107.84 232.28-237.22 232.28-129.37 0-234.55-103.54-237.21-232.28z" opacity=".3"/><path d="m253.87 15.791c-131.05 0-237.28 106.23-237.28 237.28 0 1.6721.03003 3.3361.06445 5 2.6623-128.74 107.84-232.28 237.21-232.28 129.38 0 234.55 103.54 237.22 232.28.0344-1.6639.0645-3.3279.0645-5 0-131.05-106.23-237.28-237.28-237.28z" fill="#fff" opacity=".3"/></g></svg>