<svg viewBox="0 0 512 512" xmlns="http://www.w3.org/2000/svg" xmlns:xlink="http://www.w3.org/1999/xlink"><filter id="a" color-interpolation-filters="sRGB" height="1.1187" width="1.1137" x="-.056846" y="-.059369"><feGaussianBlur stdDeviation="11.132667"/></filter><path d="m258.02 34.961c-2.6296 0-5.149-.01861-8.3516.76367-3.2025.78228-7.2952 3.0592-9.7129 6.2285-4.8353 6.3385-4.5712 11.529-5.4531 19.055-1.196 10.202-7.4497 49.888-9.7949 62.484-7.3513.30511-14.202 2.0071-20.07 5.1269-6.4723 3.4407-13.43 9.248-13.43 19.107 0 7.2044 4.1614 12.992 8.832 16.568 1.1342.86851 2.3256 1.6413 3.5606 2.3379l-1.0762 1.3848a11.426 11.426 0 0 0 -2.3965 7.3867l.58008 17.568c.0274.83046.0661 1.6243.0977 2.4473l-168.08.002v51.26h32.228c3.1086 0 5.6313.66402 8.5742 2.2109.35535 3.0774 1.3789 10.456 1.3789 20.07v147.75c0 6.16-.94471 10.062-1.3535 11.863-4.892 1.2473-11.93 2.7245-18.227 4.043-3.3861.709-6.4418 1.3538-9.3066 2.0918-1.4324.369-2.7117.68456-4.7812 1.4726-1.0348.39405-2.2078.76543-4.584 2.2774-1.1881.75596-2.7534 1.7453-4.8887 4.2031s-5.3613 7.2861-5.3613 14.314c0 .71771-.36269 3.6197 1.1211 8.5937 1.4838 4.974 6.077 11.161 10.783 14.135 9.4123 5.9479 15.711 5.2734 24.695 5.2734 30.862 0 54.413-5.4473 71.703-18.531 9.2842-7.0256 15.719-16.303 19.766-26.32 11.317 8.5772 25.313 13.541 39.668 13.541 12.67 0 25.25-3.4308 35.969-10.082.42588-.26261.78643-.61199 1.2051-.88477v7.9707h57.094v.002h91.369v-.002h109.91v-22.309c4.5422-2.8792 6.411-8.3386 6.6269-11.764.44723-7.0937-1.5978-12.337-4.7812-21.072a11.426 11.426 0 0 0 -.0215-.0586c-3.2751-8.8324-12.064-32.659-18.193-49.252-.53755-2.7339-1.2538-5.4514-2.2715-8.2266l-.0176-.0488-.0176-.0469c-1.0781-2.8974-2.369-5.7608-3.9121-8.5137-4.6479-12.59-6.3855-17.264-12.068-32.672-2.8267-7.6638-5.6977-15.003-8.1016-20.783-1.2019-2.89-2.2808-5.3803-3.2266-7.4141-.94578-2.0337-.89854-2.7837-3.2441-5.7598l.004.002c-3.5273-4.4791-7.2151-6.661-11.301-8.9551-2.1877-1.2283-4.0504-2.4355-6.375-3.3223-.0972-3.2477-.17383-7.1195-.17383-11.412 0-5.0896-.0993-9.7451-.27344-13.34-.0871-1.7974-.18599-3.2948-.33984-4.6816-.0769-.69341-.14388-1.313-.35743-2.293-.10676-.48998-.21072-1.0395-.64843-2.1309-.35697-.89005-.36941-2.8491-3.6387-4.959-.37182-.3993-.82696-.89439-1.4688-1.6152-1.5397-1.7293-3.6592-4.1711-5.9219-6.8223-4.5255-5.3023-9.7308-11.573-12.252-14.812-1.4448-1.8563-5.5523-5.7917-9.7441-6.9902s-7.195-1.1344-12.795-1.4492a11.426 11.426 0 0 0 -.002 0l-8.4219-.47266-7.7324-5.1269c-3.063-2.0304-6.1694-3.9374-8.8887-5.4785-.46641-.26433-.75618-.44632-1.1328-.68164.90374-2.6692 2.4503-6.9666 5.5293-13.291 12.276-25.216 18.865-38.833 22.51-47.18 1.8224-4.1732 2.951-7.0159 3.6953-9.9141.74398-2.8968.81196-6.5416.39843-8.7461v-.0039c-.99036-5.2734-4.5233-10.84-9.0039-14.533-4.4816-3.694-9.8478-6.5886-17.478-10.338-35.362-17.376-70.386-28.799-95.322-29.172a11.426 11.426 0 0 0 -.01-.002 11.426 11.426 0 0 0 -1.293-.07227zm-33.186 88.406h2.1289c-.73169 0-1.4304.0906-2.1523.11914zm134.85 80.562c2.0596 0 5.0254 2.6592 5.0254 4.5058 0 3.3009-1.9094 3.7564-3.8906.92773-1.7613-2.5145-2.3701-5.4336-1.1348-5.4336zm55.088 6.2988c1.6938.72067 2.1182 1.062 2.3594 1.3105-.70079-.43545-1.3266-.87119-2.3594-1.3105zm-245.34 36.453h8.9238c.1 12.698.31826 24.432.96484 30.18l-.32617-2.8945-19.301 10.18v-15.186c0-8.0873.44144-14.357 1.0391-18.191.24164-1.5505.56512-2.3268.78711-2.9297.99859-.63852 2.8792-1.1582 7.9121-1.1582zm185.84 15.189c.54792.66336 1.0352 1.3297 1.6094 1.9922-2.2547 1.6331-4.2992 3.5624-5.6602 6.1055-2.0633 3.8553-2.1645 9.9119-.68164 13.727 1.4829 3.8146 3.5232 6.3932 6.0254 9.4023-.23675-.28471 2.7133 4.2363 3.8867 6.7168.78995 1.6698 2.2032 5.2562 3.8203 9.6387-2.1881-1.4963-4.3843-2.9839-6.539-4.1601h-.002c-8.6298-4.7118-15.349-8.8962-19.914-12.273-1.6879-1.2487-2.7204-2.2661-3.7715-3.2617 1.511-1.8785 2.4893-3.1756 6.9531-8.3379 4.3578-5.0406 7.7424-8.9795 10.439-12.836 1.4454-2.0667 2.8273-4.2395 3.834-6.7129zm-81.75 180.3-.64453.33594c.0906-.0453.15639-.11203.24609-.1582.13389-.0706.26437-.10496.39844-.17774z" filter="url(#a)" opacity=".3" transform="matrix(.97813 0 0 .97813 .34926 1.7043)"/><path d="m252.73 43.163c-9.2292 0-10.229 1.3123-11.904 15.603-1.3546 11.555-8.0396 54.065-10.228 65.048l-1.1584 5.8202h-7.0869c-12.515 0-23.799 5.998-23.799 12.652 0 5.4299 6.3145 10.265 15.119 11.577l4.7981.71453-11.199 14.413.56731 17.183c.31163 9.4511.91027 19.052 1.3295 21.339l.76218 4.1551-9.8458-.68858c-14.68-1.0281-14.325-1.7129-14.111 27.15.0931 12.582.49091 25.731.88343 29.22l.53482 4.744-53.224 28.072 27.637 82.492 278.91 9.5987c26.49 13.154 41.703 28.584 29.916-3.7589-6.4298-17.34-18.885-51.058-35.688-96.616-5.4313-14.726-11.076-28.3-12.546-30.165-2.9753-3.7781-12.32-9.0248-16.074-9.0248-1.3394 0-2.737-.78937-3.1071-1.7538-.37011-.96447-.67339-9.6526-.67339-19.307 0-9.6551-.39058-17.722-.86827-17.924-.8279-.35224-15.669-17.74-21.131-24.759-2.5002-3.2123-2.9739-3.3485-13.854-3.9602l-11.263-.63226-10.087-6.6885c-5.5489-3.6784-11.472-7.0351-13.162-7.4594-2.9292-.73519-3.0498-1.0226-2.5572-6.1493.34362-3.5762 2.8418-10.152 7.4527-19.623 24.004-49.305 25.83-53.486 25.086-57.447-1.0628-5.6657-5.4707-9.2974-19.849-16.362-34.15-16.781-68.979-27.457-89.575-27.457zm72.518 146.1 4.4497.71237c2.4467.39125 4.844.95629 5.3287 1.2558.48473.29958.58993 3.0185.2317 6.0433-.62476 5.2751-.46589 5.704 3.9343 10.478 4.0664 4.4115 4.5882 5.588 4.5882 10.367 0 10.458 4.863 20.53 15.621 32.351 8.747 9.6127 9.4003 12.195 3.0876 12.195-4.1092 0-7.2005 1.5776-8.7433 4.4605-1.3111 2.4498-.28305 5.094 3.9668 10.205 1.3832 1.6634 3.7731 5.6846 5.3113 8.9361 4.4047 9.3106 15.125 41.843 15.125 45.9 0 2.0176-.48346 3.668-1.074 3.668-.59049 0-3.0319-2.6507-5.4262-5.8916-6.186-8.3736-18.296-19.12-26.741-23.73-17.459-9.532-27.74-17.138-30.573-22.618-1.6156-3.1242-1.5863-3.1709 11.107-17.85 16.9-19.548 16.902-20.766.10381-31.007l-5.4888-3.3453 3.5661-1.5006c1.9614-.82467 3.8498-2.2368 4.1963-3.1397.34648-.90292-1.1582-5.6015-3.3432-10.441-4.4538-9.8644-4.7558-11.914-2.1783-14.764.98672-1.0903 2.0539-4.2998 2.373-7.1324zm26.921 7.9941c2.0145 0 4.9152 2.6021 4.9152 4.4084 0 3.2287-1.8665 3.674-3.8043.90725-1.7228-2.4595-2.3191-5.3157-1.1108-5.3157z" stroke="#fcfcfc" stroke-linejoin="round" stroke-width="22.35"/><path d="m252.73 43.163c-9.2292 0-10.229 1.3123-11.904 15.603-1.3546 11.555-8.0396 54.065-10.228 65.048l-1.1584 5.8202h-7.0868c-12.515 0-23.799 5.998-23.799 12.652 0 5.4299 6.3145 10.265 15.119 11.577l4.7981.71455-11.199 14.413.56729 17.183c.31165 9.4511.91029 19.052 1.3295 21.339l.76217 4.1551-9.8458-.68857c-14.68-1.0281-14.325-1.7129-14.111 27.15.0931 12.582.4909 25.731.88342 29.22l.53482 4.744-53.224 28.072 27.637 114.44h278.91l36.13-3.3832c-.036-4.5862-1.5764-10.218-6.2142-22.726-6.4298-17.34-18.885-51.058-35.688-96.616-5.4314-14.726-11.076-28.3-12.546-30.165-2.9753-3.7781-12.32-9.0248-16.074-9.0248-1.3394 0-2.737-.78938-3.1071-1.7538-.37013-.96447-.6734-9.6526-.6734-19.307 0-9.6551-.39059-17.722-.86827-17.924-.82791-.35224-15.669-17.74-21.131-24.759-2.5002-3.2123-2.9739-3.3485-13.854-3.9602l-11.263-.63226-10.087-6.6885c-5.5489-3.6784-11.472-7.0351-13.162-7.4594-2.9292-.73518-3.0498-1.0226-2.5572-6.1493.34362-3.5762 2.8418-10.152 7.4528-19.623 24.004-49.305 25.83-53.486 25.086-57.447-1.0628-5.6657-5.4707-9.2974-19.849-16.362-34.15-16.781-68.979-27.457-89.575-27.457zm72.518 146.1 4.4497.71237c2.4467.39125 4.844.95629 5.3287 1.2558.48473.29958.58993 3.0185.2317 6.0433-.62475 5.2751-.46589 5.704 3.9343 10.478 4.0664 4.4115 4.5882 5.588 4.5882 10.367 0 10.458 4.863 20.53 15.621 32.351 8.747 9.6127 9.4003 12.195 3.0876 12.195-4.1092 0-7.2005 1.5776-8.7433 4.4605-1.3111 2.4498-.28306 5.094 3.9668 10.205 1.3832 1.6634 3.7731 5.6846 5.3113 8.9361 4.4047 9.3106 15.125 41.843 15.125 45.9 0 2.0176-.48346 3.668-1.074 3.668-.59052 0-3.0319-2.6507-5.4262-5.8916-6.186-8.3736-18.296-19.12-26.741-23.73-17.459-9.532-27.74-17.138-30.573-22.618-1.6156-3.1242-1.5863-3.1709 11.107-17.85 16.9-19.548 16.902-20.766.10382-31.007l-5.4888-3.3453 3.5661-1.5006c1.9614-.82467 3.8498-2.2368 4.1963-3.1397.34648-.90292-1.1582-5.6015-3.3432-10.441-4.4538-9.8644-4.7558-11.914-2.1783-14.764.98672-1.0903 2.0539-4.2998 2.373-7.1324zm26.921 7.9941c2.0145 0 4.9152 2.6021 4.9152 4.4084 0 3.2287-1.8665 3.674-3.8043.90724-1.7228-2.4595-2.3191-5.3157-1.1108-5.3157z" stroke-width="1.0932"/><path d="m252.73 43.163c-9.2292 0-10.228 1.3136-11.904 15.604-1.3546 11.555-8.0407 54.065-10.23 65.047l-1.1573 5.8205h-7.0868c-12.515 0-23.8 5.9976-23.8 12.651 0 2.0181.87536 3.9525 2.4234 5.6561 3.9686-4.2426 12.339-7.375 21.376-7.375h7.0868l1.1573-5.8206c2.1891-10.982 8.8752-53.492 10.23-65.046 1.6752-14.29 2.6747-15.604 11.904-15.604 20.596 0 55.424 10.677 89.575 27.458 11.003 5.4071 16.158 8.8049 18.452 12.64 1.5758-4.1147 1.6814-5.6913 1.3965-7.2107-1.0629-5.6657-5.4708-9.2967-19.849-16.362-34.15-16.781-68.978-27.458-89.575-27.458zm-41.778 121.08-3.6811 4.738.34591 10.488 5.2526-6.7623 5.5985-7.2064-4.7979-.71316c-.93805-.1398-1.8412-.32821-2.7181-.54449zm119.92 5.5601c-.70946 2.1268-1.131 3.8581-1.2577 5.1758-.49261 5.1267-.37335 5.4142 2.5558 6.1495 1.6901.42421 7.6147 3.78 13.164 7.4584l10.086 6.6896 11.266.63204c10.88.61173 11.353.74856 13.854 3.9608 5.4628 7.0188 20.303 24.407 21.13 24.759.47773.20326.86904 8.2679.86904 17.924-.00001 9.6551.30253 18.342.67258 19.306.37006.96447 1.7674 1.7552 3.1068 1.7552 3.7533 0 13.099 5.2454 16.075 9.0234 1.4684 1.8647 7.113 15.441 12.545 30.166 16.803 45.558 29.259 79.274 35.689 96.615 2.2167 5.9779 3.7092 10.356 4.6847 13.829l1.5287-2.0349c-.0361-4.5862-1.5757-10.219-6.2134-22.727-6.4298-17.34-18.885-51.055-35.689-96.615-5.4314-14.726-11.075-28.302-12.545-30.166-2.9753-3.7781-12.32-9.0234-16.075-9.0234-1.3394 0-2.7366-.79067-3.1068-1.7552-.37005-.96446-.67259-9.6515-.67258-19.306 0-9.6551-.39131-17.721-.86904-17.924-.82791-.35224-15.668-17.74-21.13-24.759-2.5002-3.2123-2.9739-3.3491-13.854-3.9608l-11.266-.63202-10.086-6.6896c-5.5489-3.6784-11.473-7.0341-13.164-7.4584-.53006-.13306-.93909-.25785-1.2982-.39289zm21.297 38.38c-1.2084 0-.61253 2.8551 1.1103 5.3146 1.9379 2.7667 3.805 2.3213 3.805-.90745 0-1.8063-2.9008-4.4071-4.9153-4.4071zm-158.86 2.4363c-7.4007.0983-7.5112 3.9563-7.3558 24.49.26769-14.592 2.3791-14.031 14.129-13.209l9.8458.68755-.76227-4.1551c-.18641-1.0165-.40709-3.6194-.6235-6.8732l-8.4598-.59146c-2.7526-.19278-4.9775-.37406-6.7729-.35018zm129.31 1.4114c-.10907.16731-.21844.32026-.32668.43986-2.5776 2.8482-2.2759 4.8988 2.1779 14.764.27986.61983.50933 1.2096.76441 1.8171 1.2846-.76458 2.332-1.6635 2.5793-2.3081.34645-.90291-1.1587-5.6018-3.3437-10.442-.74558-1.6514-1.3324-3.0166-1.8513-4.2703zm5.0561 24.013c.17399.78669.23733 1.3746.1388 1.6313-.34644.90291-2.2344 2.3163-4.1957 3.1409l-3.568 1.4989 5.4896 3.3458c4.7604 2.9018 8.1678 5.0797 10.227 7.1551 4.8132-7.5316 2.1118-10.441-8.0925-16.773zm32.955 26.745c-3.1799.41332-5.5885 1.9019-6.8883 4.3302-1.1298 2.1112-.50757 4.3746 2.4022 8.2291 1.6388-1.1488 3.793-1.7573 6.3417-1.7573 5.9775 0 5.6172-2.394-1.8555-10.802zm-174.12 9.758-52.344 27.608 1.8406 9.9603 51.382-27.1-.53381-4.7444c-.11872-1.0556-.23478-3.1841-.3459-5.7245zm130.23 14.376c-3.736 4.6864-3.4936 5.4968-2.4084 7.5951 2.8334 5.4792 13.114 13.086 30.574 22.617 8.4443 4.6102 20.555 15.358 26.742 23.73 2.394 3.2409 4.835 5.8911 5.4257 5.8911.59047 0 1.074-1.6508 1.074-3.6684 0-1.0231-.68783-3.8694-1.7786-7.6867-1.0368-.86532-2.8886-2.9879-4.721-5.4683-6.186-8.3736-18.297-19.12-26.742-23.73-14.157-7.729-23.591-14.192-28.166-19.282z" fill="#fff" opacity=".2" stroke-width="1.0932"/><path d="m53.51 210.09v7.8282h10.369c6.7707 0 13.189 1.6926 19.254 5.078 4.514 2.539 7.4751 5.5724 8.8858 9.0987 1.8337 4.6549 2.7501 14.243 2.7501 28.773v144.52c0 11.849-1.6926 20.1-5.0779 24.756-3.2444 4.6552-6.4971 5.8902-10.578 6.9839-11.797 3.1612-31.784 6.3562-31.784 7.6451 0 3.2816-.11019 6.2328 14.644 6.2328 55.088 0 73.421-20.643 73.421-48.789v-141.35c0-17.208 1.6927-28.068 5.078-32.583 5.3602-6.9118 13.895-10.365 25.603-10.365h10.365v-7.8282zm221.44 58.651-28.656 11.715 1.4648 3.6582c3.2766-1.1155 5.6469-1.6702 7.1108-1.6702 1.8126 0 3.2438.45006 4.2896 1.3565 1.1155.90631 1.9148 2.6169 2.4027 5.1267.55773 2.51.837 9.2359.837 20.181v86.694c0 5.9956-.41888 9.972-1.2555 11.923-.83657 1.952-1.95 3.2748-3.3442 3.9721-2.4402 1.3246-5.7876 1.988-10.04 1.988v3.7629h47.478v-3.7629c-4.8803 0-8.3325-.52364-10.354-1.5693-1.952-1.1154-3.3098-2.4732-4.0765-4.0765-.69719-1.6036-1.0463-5.684-1.0463-12.238v-50.612c5.1591-5.5077 9.585-9.1693 13.28-10.982 3.6952-1.8127 7.2519-2.7204 10.668-2.7204 3.3465 0 6.2054.83777 8.5756 2.511 2.3704 1.6035 4.0771 4.0434 5.1228 7.32 1.1155 3.2766 1.6741 10.142 1.6741 20.6v33.884c0 5.438-.10482 8.7156-.31391 9.8312-.69716 2.6492-1.9153 4.6701-3.6582 6.0645-1.743 1.3246-4.8459 1.988-9.308 1.988h-2.1972v3.7629h47.06v-3.7629c-4.4619 0-7.5302-.48863-9.2033-1.4648-1.6733-.97596-2.8563-2.2988-3.5535-3.9721-.97604-2.2309-1.4648-6.3813-1.4648-12.447v-33.884c0-11.852-.66322-20.006-1.988-24.468-1.8823-6.4141-4.776-11.123-8.6801-14.121-3.9041-2.9979-8.5745-4.4952-14.013-4.4952-4.5317 0-9.0622 1.2181-13.593 3.6582-4.5317 2.3706-10.668 7.8087-18.406 16.314v-70.064zm-83.558 50.094c-7.9478 0-15.476 2.0908-22.588 6.2737-7.1113 4.1133-12.863 10.529-17.255 19.244-4.3224 8.6451-6.4831 17.357-6.4831 26.14 0 12.061 3.5917 22.938 10.773 32.629 8.5056 11.504 19.972 17.255 34.403 17.255 8.854 0 16.872-2.2305 24.052-6.6924 7.2507-4.462 12.933-11.087 17.047-19.872 4.1133-8.7844 6.1692-17.463 6.1692-26.037 0-12.201-3.7278-23.008-11.188-32.42-8.7844-11.016-20.428-16.524-34.931-16.524zm190.75 0-28.862 11.71 1.5656 3.7665c2.719-1.0457 5.0579-1.5694 7.01-1.5694 1.8126 0 3.2401.45377 4.286 1.3601 1.1155.90638 1.9183 2.6132 2.4063 5.1228.55773 2.51.837 9.519.837 21.023v35.554c0 6.9718-.8727 11.711-2.6156 14.221-1.6733 2.4402-4.9509 3.6618-9.8312 3.6618h-2.0924v3.7629h47.373v-3.7629c-5.2289 0-8.7122-.45376-10.455-1.3601-1.6733-.97598-2.9997-2.4734-3.9759-4.4952-.76691-1.5338-1.151-5.5445-1.151-12.028v-50.509c8.2265-9.0632 16.489-13.598 24.784-13.598 5.3682 0 9.1696 1.9898 11.401 5.9636 2.3008 3.9041 3.4489 10.212 3.4489 18.926v39.216c0 5.5077-.13962 8.7854-.41851 9.8312-.69718 2.6492-1.9502 4.6702-3.7629 6.0645-1.7428 1.3246-4.8459 1.988-9.308 1.988h-1.9879v3.7629h47.373v-3.7629c-4.6012 0-7.7706-.48864-9.5135-1.4648-1.6733-.97597-2.8951-2.3337-3.662-4.0765-.97604-2.1613-1.4647-6.2766-1.4647-12.342v-40.891c0-8.6449-.76427-15.057-2.298-19.24-2.2309-5.9956-5.2293-10.286-8.9941-12.864-3.7648-2.6494-8.2641-3.9721-13.493-3.9721-10.178 0-20.881 6.7608-32.105 20.287v-20.287zm-193.98 6.7969c7.6689 0 13.975 3.3474 18.926 10.04 7.3202 9.7604 10.982 23.147 10.982 40.159 0 13.595-2.1955 23.18-6.5877 28.758-4.3923 5.5774-9.97 8.3663-16.733 8.3663-9.0633 0-16.383-5.0543-21.96-15.164-5.5076-10.109-8.2617-22.138-8.2617-36.081 0-8.6451 1.1482-15.72 3.4489-21.228 2.3008-5.5076 5.2991-9.34 8.9941-11.502 3.7648-2.231 7.4963-3.3479 11.191-3.3479z" fill="#fc4" stroke="#000" stroke-width="42.312"/><g stroke-width="1.8866"><path d="m53.506 203.29v19.146h10.373c6.7707 0 13.185 1.692 19.252 5.0774 4.514 2.539 7.4748 5.5737 8.8854 9.1001 1.8337 4.655 2.7534 14.243 2.7534 28.774v144.52c0 11.849-1.6921 5.0067-5.0774 9.6614-3.2444 4.6552-6.4991 5.8896-10.58 6.9833-11.797 3.1612-31.786 6.3536-31.786 7.6424 0 3.2816-.10942 21.33 14.645 21.33 55.088 0 73.423-20.645 73.423-48.789v-141.35c0-17.208 1.6921-28.068 5.0775-32.581 5.3602-6.9118 13.895-10.366 25.602-10.366h10.366v-19.146zm226.24 54.877-4.81.005-28.656 11.714 1.469 18.751c3.2766-1.1154 5.6473-1.6724 7.1114-1.6724 1.8126 0 3.2406.44967 4.2864 1.356 1.1155.90631 1.9152 2.6202 2.4031 5.1302.55773 2.5099.8362 9.2326.8362 20.178v71.6c0 5.9956-.41767 9.973-1.2543 11.925-.8366 1.952-1.9504 3.2727-3.3448 3.97-2.4402 1.3246-5.7852 1.9925-10.039 1.9925v18.855h47.478v-18.855c-4.8803 0-8.3326-.52497-10.354-1.5707-1.952-1.1156-3.3123-2.4758-4.0793-4.0793-.6972-1.6035-1.0471-5.6845-1.0471-12.238v-35.516c5.1591-5.5078 9.586-9.1745 13.282-10.987 3.6952-1.8129 7.2548-2.7158 10.671-2.7158 3.3465 0 6.2025.83528 8.5729 2.5086 2.3704 1.6036 4.0769 4.0455 5.1226 7.3223 1.1155 3.2766 1.6724 10.142 1.6724 20.6v18.788c0 5.4379-.10337 8.7156-.31262 9.8312-.69716 2.6492-1.9183 4.6737-3.6612 6.0681-1.743 1.3246-7.0621 5.8446-9.3073 1.9888h-2.1959v18.855h47.061v-18.855c-4.4619 0-7.5286-.48909-9.2019-1.4652-1.6733-.97598-2.8584-2.3006-3.5557-3.9738-.97604-2.2309-1.4651-6.3832-1.4651-12.449v-18.788c0-11.852-.66413-35.103-1.9887-39.564-1.8823-6.4141-4.7741-11.123-8.6783-14.121-3.9041-2.9979-8.5739-4.4936-14.012-4.4936-4.5317 0-9.0622 1.2172-13.593 3.6574-4.5317 2.3705-10.668 7.8116-18.407 16.317zm-88.369 50.093c-7.9464.00068-15.474 2.0926-22.585 6.2753-7.1112 4.1134-12.862 25.622-17.255 34.336-4.3224 8.6451-6.4862 17.357-6.4862 26.14 0 12.061 3.5917 22.939 10.772 32.63 8.5056 11.504 19.969 17.254 34.401 17.254 8.854 0 16.874-2.2277 24.053-6.6895 7.2507-4.462 12.934-11.089 17.048-19.873 4.1133-8.7844 6.166-17.463 6.166-26.039 0-12.201-3.7271-38.1-11.188-47.513-8.7836-11.015-20.423-16.524-34.924-16.524zm190.75 0-28.865 11.71 1.567 18.863c2.719-1.0458 5.0576-1.5707 7.0097-1.5707 1.8126 0 3.2444.45337 4.2903 1.3598 1.1154.90637 1.9151 2.6131 2.4031 5.1226.55775 2.51.83621 9.5174.83621 21.022v20.463c0 6.9718-.87117 11.713-2.614 14.223-1.6733 2.4402-7.4642 7.9291-9.8312 3.6611h-2.0942v18.855h47.373v-18.855c-5.2287 0-8.7134-.45715-10.456-1.3635-1.6733-.97601-2.9979-2.4717-3.9737-4.4936-.76686-1.5338-1.1488-5.5431-1.1488-12.027v-35.414c8.2267-9.0631 16.487-13.598 24.784-13.598 5.3682 0 9.1669 1.9886 11.397 5.9626 2.3008 3.9041 3.4502 10.213 3.4502 18.928v24.122c0 5.5077-.14291 8.7851-.42187 9.8312-.69715 2.6492-1.9465 4.6699-3.759 6.0643-1.7428 1.3246-7.2275 5.9364-9.3073 1.9887h-1.9888v18.855h47.373v-18.855c-4.6012 0-7.7715-.48908-9.5144-1.4651-1.6733-.97598-2.8907-2.3326-3.6574-4.0756-.97605-2.1613-1.469-6.2777-1.469-12.343v-25.798c0-8.6451-.76376-30.151-2.2976-34.333-2.2309-5.9956-5.2261-10.288-8.991-12.867-3.7648-2.6494-8.2671-3.9738-13.496-3.9738-10.178 0-20.882 6.7653-32.107 20.29v-20.29zm-193.98 21.892v.005c7.6689 0 13.981 3.3452 18.931 10.038 7.3202 9.7603 10.979 23.144 10.979 40.155 0 13.595-2.1956 8.0879-6.5879 13.664-4.3923 5.5774-9.973 8.3694-16.735 8.3694-9.0633 0-16.378-5.0554-21.956-15.165-5.5077-10.109-8.2678-7.0443-8.2678-20.988 0-8.6451 1.1496-15.721 3.4502-21.228 2.3008-5.5076 5.2996-9.3383 8.9948-11.499 3.7647-2.2309 7.4957-3.3523 11.191-3.3523z" fill="#fc4"/><path d="m53.506 203.29v19.146h10.373c6.7707 0 13.185 1.692 19.252 5.0774 4.514 2.539 7.4748 5.5737 8.8854 9.1001 1.8337 4.6549 2.7534 14.243 2.7534 28.774v144.52c0 11.849-1.6921 5.0067-5.0774 9.6614-3.2444 4.6552-6.4991 5.8896-10.58 6.9833-11.797 3.1612-31.786 6.3536-31.786 7.6424 0 3.2816-.10942 21.33 14.645 21.33 55.088 0 73.423-20.645 73.423-48.789v-141.35c0-17.208 1.6921-28.068 5.0775-32.581 5.3602-6.9118 13.895-10.366 25.602-10.366h10.366v-19.146zm226.24 54.877-4.81.005-28.656 11.714 1.469 18.751c3.2766-1.1154 5.6473-1.6724 7.1114-1.6724 1.8126 0 3.2406.44964 4.2864 1.356 1.1155.9063 1.9152 2.6202 2.4031 5.1302.55773 2.5099.8362 9.2328.8362 20.178v71.6c0 5.9956-.41768 9.973-1.2543 11.925-.8366 1.952-1.9504 3.2727-3.3448 3.97-2.4402 1.3246-5.7852 1.9925-10.039 1.9925v18.855h47.478v-18.855c-4.8803 0-8.3326-.52497-10.354-1.5707-1.952-1.1156-3.3123-2.4758-4.0793-4.0793-.69717-1.6035-1.0471-5.6845-1.0471-12.238v-35.516c5.1591-5.5078 9.586-9.1745 13.282-10.987 3.6952-1.8127 7.2548-2.7158 10.671-2.7158 3.3465 0 6.2025.8353 8.5729 2.5086 2.3704 1.6036 4.0769 4.0455 5.1226 7.3223 1.1155 3.2766 1.6724 10.142 1.6724 20.6v18.788c0 5.4379-.10337 8.7156-.31262 9.8312-.6972 2.6492-1.9183 4.6739-3.6612 6.0681-1.743 1.3246-4.8455 1.9888-9.3073 1.9888h-2.1959v18.855h47.061v-18.855c-4.4619 0-7.5286-.48909-9.2019-1.4652-1.6733-.97598-2.8584-2.3006-3.5557-3.9738-.97604-2.2309-1.4651-6.383-1.4651-12.449v-18.788c0-11.852-.66411-35.103-1.9887-39.564-1.8823-6.4141-4.7741-11.123-8.6783-14.121-3.9041-2.9979-8.5739-4.4936-14.012-4.4936-4.5317 0-9.0622 1.2172-13.593 3.6574-4.5317 2.3705-10.668 7.8116-18.407 16.317zm-88.369 50.093c-7.9464.00068-15.474 2.0926-22.585 6.2753-7.1112 4.1134-12.862 25.622-17.255 34.336-4.3224 8.6451-6.4862 17.357-6.4862 26.14 0 12.061 3.5917 22.939 10.772 32.63 8.5056 11.504 19.969 17.254 34.401 17.254 8.854 0 16.874-2.2277 24.053-6.6895 7.2507-4.462 12.934-11.089 17.048-19.873 4.1133-8.7844 6.166-17.463 6.166-26.039 0-12.201-3.7271-38.1-11.188-47.513-8.7836-11.015-20.423-16.524-34.924-16.524zm190.75 0-28.865 11.71 1.567 18.863c2.719-1.0457 5.0576-1.5707 7.0097-1.5707 1.8126 0 3.2444.45338 4.2903 1.3598 1.1154.90637 1.9151 2.6131 2.4031 5.1226.55775 2.51.83621 9.5174.83621 21.022v20.463c0 6.9718-.87117 11.713-2.614 14.223-1.6733 2.4402-7.4642 7.9291-9.8312 3.6611h-2.0942v18.855h47.373v-18.855c-5.2287 0-8.7134-.45715-10.456-1.3635-1.6733-.97601-2.9979-2.4717-3.9737-4.4936-.76686-1.5338-1.1488-5.5431-1.1488-12.027v-35.414c8.2265-9.0633 16.487-13.598 24.784-13.598 5.3682 0 9.1669 1.9886 11.397 5.9626 2.3008 3.9041 3.4502 10.213 3.4502 18.928v24.122c0 5.5077-.14291 8.7851-.42187 9.8312-.69717 2.6492-1.9465 4.6701-3.759 6.0643-1.7428 1.3246-4.8455 1.9887-9.3073 1.9887h-1.9888v18.855h47.373v-18.855c-4.6012 0-7.7715-.48908-9.5144-1.4651-1.6733-.97598-2.8907-2.3324-3.6574-4.0756-.97605-2.1613-1.469-6.2777-1.469-12.343v-25.798c0-8.6451-.76376-30.151-2.2976-34.333-2.2309-5.9956-5.2261-10.288-8.991-12.867-3.7648-2.6494-8.2671-3.9738-13.496-3.9738-10.178 0-20.882 6.7653-32.107 20.29v-20.29zm-193.98 21.892v.005c7.6689 0 13.981 3.3452 18.931 10.038 7.3204 9.7603 10.979 23.144 10.979 40.155 0 13.595-2.1956 8.0879-6.5879 13.664-4.3923 5.5774-9.973 8.3694-16.735 8.3694-9.0633 0-16.378-5.0554-21.956-15.165-5.5077-10.109-8.2678-7.0443-8.2678-20.988 0-8.6451 1.1496-15.721 3.4502-21.228 2.3008-5.5076 5.2996-9.3383 8.9948-11.499 3.7647-2.2309 7.4957-3.3523 11.191-3.3523z" opacity=".3"/><path d="m53.51 199.52v7.8282h10.369c6.7707 0 13.189 1.6926 19.254 5.078 4.5139 2.539 7.4751 5.5724 8.8858 9.0987 1.8337 4.6549 2.7501 14.243 2.7501 28.773v144.52c0 11.849-1.6926 20.1-5.0779 24.756-3.2444 4.6552-6.4971 5.8902-10.578 6.9839-11.797 3.1612-31.784 6.3562-31.784 7.6451 0 3.2816-.11019 6.2328 14.644 6.2328 55.088 0 73.421-20.643 73.421-48.789v-141.35c0-17.208 1.6927-28.068 5.078-32.583 5.3602-6.9118 13.895-10.365 25.603-10.365h10.365v-7.8282zm221.44 58.651-28.656 11.715 1.4648 3.6582c3.2766-1.1154 5.6467-1.6703 7.1108-1.6703 1.8126 0 3.2438.45007 4.2896 1.3565 1.1155.90632 1.9148 2.6169 2.4027 5.1267.55774 2.5099.837 9.2359.837 20.181v86.693c0 5.9956-.41888 9.972-1.2555 11.923-.83659 1.952-1.95 3.2748-3.3442 3.9721-2.4402 1.3246-5.7876 1.9879-10.04 1.9879v3.7629h47.478v-3.7629c-4.8803 0-8.3324-.52365-10.354-1.5693-1.952-1.1155-3.3098-2.4732-4.0766-4.0766-.69717-1.6035-1.0462-5.684-1.0462-12.238v-50.612c5.1591-5.5077 9.585-9.1693 13.28-10.982 3.6952-1.8127 7.2519-2.7204 10.668-2.7204 3.3465 0 6.2054.83778 8.5756 2.511 2.3704 1.6036 4.0771 4.0434 5.1228 7.3201 1.1155 3.2766 1.6741 10.142 1.6741 20.6v33.884c0 5.438-.1047 8.7156-.3139 9.8312-.69714 2.6492-1.9153 4.6701-3.6582 6.0645-1.743 1.3246-4.8459 1.9879-9.308 1.9879h-2.1972v3.7628h47.06v-3.7628c-4.4619 0-7.5302-.48863-9.2033-1.4647-1.6733-.976-2.8563-2.2988-3.5535-3.9721-.97604-2.2309-1.4648-6.3813-1.4648-12.447v-33.884c0-11.852-.66323-20.006-1.988-24.468-1.8823-6.4141-4.776-11.123-8.6801-14.121-3.9041-2.9979-8.5745-4.4952-14.013-4.4952-4.5317 0-9.0622 1.2181-13.593 3.6582-4.5317 2.3706-10.668 7.8087-18.406 16.314v-70.064zm-83.558 50.094c-7.9478 0-15.476 2.0908-22.588 6.2737-7.1113 4.1133-12.863 10.529-17.255 19.244-4.3224 8.6451-6.4831 17.357-6.4831 26.14 0 12.061 3.5917 22.937 10.773 32.629 8.5056 11.504 19.972 17.255 34.403 17.255 8.854 0 16.872-2.2305 24.052-6.6924 7.2507-4.462 12.933-11.087 17.047-19.872 4.1133-8.7844 6.1692-17.463 6.1692-26.037 0-12.201-3.7278-23.008-11.188-32.42-8.7844-11.016-20.428-16.524-34.931-16.524zm190.75 0-28.862 11.71 1.5656 3.7665c2.719-1.0457 5.0579-1.5694 7.01-1.5694 1.8126 0 3.2401.45375 4.286 1.3601 1.1155.90637 1.9183 2.6132 2.4063 5.1228.55773 2.51.837 9.519.837 21.023v35.554c0 6.9718-.8727 11.711-2.6156 14.221-1.6733 2.4402-4.9508 3.6618-9.8312 3.6618h-2.0924v3.7629h47.373v-3.7629c-5.2287 0-8.7122-.45377-10.455-1.3601-1.6733-.97599-2.9997-2.4734-3.9759-4.4952-.7669-1.5338-1.151-5.5446-1.151-12.028v-50.509c8.2265-9.0632 16.489-13.598 24.784-13.598 5.3682 0 9.1696 1.9898 11.401 5.9636 2.3008 3.9041 3.4489 10.212 3.4489 18.926v39.216c0 5.5078-.13962 8.7854-.41851 9.8312-.69718 2.6492-1.9502 4.6702-3.7629 6.0645-1.7428 1.3246-4.8459 1.9879-9.308 1.9879h-1.9879v3.7629h47.373v-3.7629c-4.6012 0-7.7706-.48863-9.5135-1.4647-1.6733-.97599-2.8951-2.3337-3.662-4.0766-.97605-2.1613-1.4648-6.2766-1.4648-12.342v-40.891c0-8.6449-.76424-15.057-2.298-19.24-2.2309-5.9956-5.2293-10.286-8.9941-12.864-3.7648-2.6494-8.2641-3.9721-13.493-3.9721-10.178 0-20.881 6.7608-32.105 20.287v-20.287zm-193.98 6.7969c7.6689 0 13.975 3.3474 18.926 10.04 7.3202 9.7603 10.982 23.147 10.982 40.159 0 13.595-2.1955 23.18-6.5877 28.758-4.3923 5.5774-9.97 8.3663-16.733 8.3663-9.0633 0-16.383-5.0543-21.96-15.164-5.5076-10.109-8.2617-22.138-8.2617-36.081 0-8.6451 1.1482-15.72 3.4489-21.228 2.3008-5.5076 5.2991-9.34 8.9941-11.502 3.7648-2.2309 7.4963-3.3479 11.191-3.3479z" fill="#fc4"/></g><path d="m322.54 181.54c.62028-1.1591 1.2614-5.0253 1.4248-8.5917l.29697-6.4844-9.9779-5.2279c-21.203-11.11-62.876-27.179-75.874-29.258-4.2401-.67801-4.4998-.5616-4.4998 2.0186 0 2.3746 1.0669 3.15 8.0375 5.8407 19.462 7.5127 46.521 23.021 68.456 39.232 6.6924 4.9461 10.406 5.7021 12.137 2.4705z" fill="#d41919" stroke-width="1.1086"/><path d="m235.12 131.63c-1.1112.0954-1.2129.74683-1.2129 2.3594 0 .87029.14575 1.5259.67047 2.1395.59712-.26171 1.7185-.12173 3.8285.21567 12.999 2.0785 54.673 18.147 75.874 29.258l9.7813 5.1244.19645-4.2703-9.9779-5.2269c-21.203-11.11-62.876-27.178-75.874-29.258-1.59-.25426-2.6193-.39885-3.2861-.34163z" opacity=".2" stroke-width="1.1086"/></svg>