<svg height="512" viewBox="0 0 135.47 135.47" width="512" xmlns="http://www.w3.org/2000/svg" xmlns:xlink="http://www.w3.org/1999/xlink"><filter id="a" color-interpolation-filters="sRGB" height="1.1021" width="1.1348" x="-.067391" y="-.051029"><feGaussianBlur stdDeviation="2.6440607"/></filter><path d="m67.735 6.6189c-15.63.080237-31.328 2.3709-47.081 6.6318v2.7632c.13128-.03551.26251-.06812.39378-.10336v66.509c0 .34392.0129.69284.03617 1.0454-.2807-1.3166-.43099-2.5958-.43099-3.8174v2.7632c0 9.8853 9.7799 23.539 19.784 30.258l27.239 18.294.0016-.001v.0103l.19586-.13282.19844.13333 26.959-18.294c9.9714-6.7668 19.784-20.373 19.784-30.258v-69.162c-14.575-4.311-29.215-6.4507-43.914-6.622-1.0553-.014833-2.1109-.021433-3.1668-.01602z" filter="url(#a)" opacity=".3" stroke-width="1.0444" transform="matrix(.9885 0 0 .9885 .77993 -.26814)"/><g stroke-width="1.0324"><path d="m21.586 11.79v68.367c0 9.7716 9.6678 23.269 19.556 29.91l26.927 18.084 26.649-18.084c9.8567-6.6889 19.556-20.139 19.556-29.91v-68.367c-30.626-9.0584-61.541-8.4239-92.688 0z" fill="#265ab1"/><path d="m28.506 22.269v57.581c0 8.2302 11.299 20.019 16.472 25.192v-58.274l15.226 13.704v24.361h14.672v-24.361l15.226-13.704v58.274c5.1726-5.1726 16.472-16.962 16.472-25.192v-57.581h-15.642l-23.392 22.285-23.393-22.285z" opacity=".3"/><path d="m28.506 19.543v57.581c0 8.2302 11.299 20.019 16.472 25.192v-58.274l15.226 13.704v24.361h14.672v-24.361l15.226-13.704v58.274c5.1726-5.1726 16.472-16.962 16.472-25.192v-57.581h-15.642l-23.392 22.285-23.393-22.285z" fill="#fff"/></g><path d="m67.736 5.2282c-15.45.079314-30.967 2.3437-46.539 6.5556v2.7315c31.147-8.4239 62.062-9.0584 92.688 0v-2.7315c-15.313-4.5291-30.696-6.6348-46.148-6.5556z" fill="#fff" opacity=".2" stroke-width=".27315"/><path d="m21.195 77.416v2.7315c0 9.7716 9.6676 23.268 19.556 29.91l26.926 18.084 26.649-18.084c9.8566-6.6889 19.556-20.138 19.556-29.91v-2.7315c0 9.7716-9.6998 23.221-19.556 29.91l-26.649 18.084-26.926-18.084c-9.8885-6.6413-19.556-20.138-19.556-29.91z" opacity=".3" stroke-width=".27315"/><path d="m67.736 5.2343c-.01885.0001032-.0377.0004336-.05655.0005369v122.92l26.648-18.084c9.8567-6.6889 19.556-20.138 19.556-29.909v-68.367c-15.312-4.5292-30.698-6.6349-46.149-6.5557z" opacity=".2" stroke-width="1.0324"/></svg>