<svg viewBox="0 0 512 512" xmlns="http://www.w3.org/2000/svg" xmlns:xlink="http://www.w3.org/1999/xlink"><filter id="a" color-interpolation-filters="sRGB" height="1.1138" width="1.1186" x="-.0593" y="-.05691"><feGaussianBlur stdDeviation="10.303244"/></filter><linearGradient id="b" gradientTransform="matrix(1.1918 -.19418 .19418 1.1918 -109.26 -57.406)" gradientUnits="userSpaceOnUse" x1="163.39" x2="453.68" y1="520.91" y2="121.28"><stop offset="0" stop-color="#23bac2"/><stop offset="1" stop-color="#367bf0"/></linearGradient><radialGradient id="c" cx="116.91" cy="358.51" gradientTransform="matrix(1.7866 .12361 -.17191 2.4392 -30.333 -530.41)" gradientUnits="userSpaceOnUse" r="157.58"><stop offset="0"/><stop offset="1" stop-color="#4c4f5c"/></radialGradient><path d="m423.32 40.736c-.35275.01227-.70711.04599-1.0606.10352l.004.0059c-.001.000209-.003-.00021-.004 0l.006.0039c-.38145.06224-.75818.15062-1.125.26367-.36682.11314-.72699.2524-1.0742.41406-.69549.32398-1.3466.74316-1.9336 1.248l-75.061 64.539a221.14 154.79 71.257 0 0 -184.29-43.73 221.14 154.79 71.257 0 0 -48.076 249.87l-12.744 34.824-3.6602 10-.002.004h28.006l3.2129-9.8066a221.14 154.79 71.257 0 0 .9707 1.9316 221.14 154.79 71.257 0 0 1.2129 2.3711 221.14 154.79 71.257 0 0 1.8535 3.5312 221.14 154.79 71.257 0 0 3.834 6.9629 221.14 154.79 71.257 0 0 1.5059 2.623l-84.461 75.156c-.2983.26545-.56314.53967-.8125.81836l-.002.002c-.0019.002-.004.004-.0059.006-.13461.15079-.26402.30293-.38476.45703l-.002-.002c-.0071.009-.01251.0183-.01953.0273-.08009.10297-.15057.20822-.22461.3125-.02536.0357-.04956.0716-.07422.10742-.07227.10493-.14852.20836-.21484.31446-.06721.10771-.12437.21738-.18555.32617-.03197.0567-.06731.11293-.09766.16992-.0024.005-.0054.009-.0078.0137-.03544.0669-.07028.13397-.10352.20117-.05844.11848-.10847.23801-.16016.35743-.05649.13013-.11349.25956-.16211.39062-.04064.1099-.07612.21966-.11133.33008-.04432.13851-.08515.27689-.12109.41602-.0271.10534-.04988.21082-.07227.3164-.03264.15311-.063.30565-.08594.45899-.01211.0814-.02378.16269-.0332.24414-.0017.0149-.0023.03-.0039.0449-.01891.17082-.03168.34125-.03906.51172-.0025.06-.0047.11979-.0059.17968-.004.19936-.0014.39768.0098.59571.003.0521.0058.10422.0098.15625.01542.20289.03968.40489.07031.60547.0068.0443.012.0886.01953.13281.03685.21737.08474.43295.13867.64648.0058.0227.0097.0457.01563.0684.83181 3.182 3.5133 5.8651 6.7812 6.4824.0071.001.01435.003.02148.004.23097.043.46487.074.70117.0957.03259.003.06497.007.09766.01.22288.0176.44711.0238.67383.0215.03519-.00033.0702.00082.10547 0 .21107-.005.42306-.0217.63672-.0449.05928-.006.11828-.01.17774-.0176.21883-.0289.43942-.0704.66016-.11914.03912-.009.07802-.0142.11719-.0234.21736-.0515.43581-.11592.6543-.1875.05682-.0186.11305-.0348.16992-.0547.20359-.0716.40741-.15627.61133-.2461.06514-.0286.13017-.0515.19531-.082.19499-.0916.38927-.19965.58398-.30859.07494-.0418.14975-.0766.22461-.12109.26248-.15623.52439-.32626.78516-.51563l.0078-.006 38.789-28.193 50.334-36.582a221.14 154.79 71.257 0 0 203.12 67.051 221.14 154.79 71.257 0 0 60.369-98.141h4.1016l-.002-.004h.008l-3.0781-5.0586a221.14 154.79 71.257 0 0 -27.912-181.24 221.14 154.79 71.257 0 0 -7.2774-13.801l81.957-66.363c.002-.0015.004-.0024.006-.0039.80584-.65265 1.4493-1.4263 1.9453-2.2676.0154-.02616.0318-.05183.0469-.07813.58086-1.0101.93888-2.1188 1.0664-3.2539.00059-.0052.001-.01041.002-.01563.0214-.19367.035-.38734.043-.58203.003-.06828.005-.13673.006-.20508.003-.17603.00022-.35129-.008-.52734-.003-.06194-.008-.12365-.0117-.18555-.0399-.58918-.14218-1.1744-.30664-1.748-.019-.0663-.0341-.13328-.0547-.19922-.047-.14993-.10249-.29753-.1582-.44531-.0364-.09666-.0712-.19346-.11133-.28906-.0573-.13644-.12062-.27027-.18555-.4043-.048-.09909-.0982-.1973-.15039-.29492-.0743-.13912-.15152-.27627-.23437-.41211-.0528-.08661-.10972-.1707-.16602-.25586-.0868-.13142-.17245-.26295-.26758-.39062-.057-.07648-.12162-.14957-.18164-.22461-.10299-.12889-.19875-.26238-.31054-.38672l-32.483-36.123c-1.6757-1.864-4.0796-2.8691-6.5488-2.7832z" filter="url(#a)" opacity=".3" stroke-width=".99557"/><ellipse cx="116.91" cy="358.51" fill="url(#c)" rx="157.58" ry="219.16" transform="matrix(.82944 -.5586 .44359 .89623 0 0)"/><path d="m93.307 208.8a221.14 154.79 71.257 0 0 31.991 135.22 221.14 154.79 71.257 0 0 227.92 108.39 221.14 154.79 71.257 0 0 65.476-159.23 221.14 154.79 71.257 0 1 -65.476 149.23 221.14 154.79 71.257 0 1 -227.92-108.39 221.14 154.79 71.257 0 1 -31.991-125.22z" opacity=".5"/><g stroke-width="1.2075"><path d="m422.27 36.85c-1.5283.24938-2.9582.91565-4.1322 1.9254l-230.2 197.93c-5.4332 4.6707-2.9164 13.562 4.1586 14.691l56.78 9.0719-198.44 176.58c-7.9765 7.0984 1.8994 19.37 10.539 13.096l328.59-238.82c5.721-4.1602 4.0682-13.094-2.7625-14.932l-44.692-12.001 119.28-96.583c3.7439-3.0322 4.1827-8.5827.96179-12.165l-32.481-36.123c-1.9151-2.1303-4.7825-3.14-7.61-2.6798z" fill="url(#b)"/><path d="m422.26 36.844.008.006c-1.5283.24938-2.9591.91572-4.1331 1.9255l-230.2 197.93c-3.0706 2.2037 1.1663 2.4865 5.4413 3.2887l226.7-189.3c1.174-1.0098 2.6048-1.6761 4.1331-1.9255l-.008-.006c2.8274-.46018 5.6949.55097 7.6101 2.6812l31.166 34.657c2.191-3.1222 2.0577-7.4679-.62535-10.452l-32.483-36.122c-1.9151-2.1303-4.7826-3.1414-7.6101-2.6812zm-162.32 213.79-209.5 186.42c-4.7617 4.2375-3.159 10.317.74255 13.196.34495-.43928.73914-.86841 1.1992-1.2778l220.56-196.26z" fill="#fff" opacity=".2"/><path d="m461.03 74.182c-.4392.62591-.96176 1.2074-1.587 1.7138l-129.85 105.14 12.511 3.3593 119.28-96.582c3.7439-3.0322 4.1825-8.5834.9616-12.166zm-71.597 123.45c-.49176.65386-1.0949 1.2545-1.8175 1.78l-328.59 238.82c-3.4821 2.5288-7.1636 2.0416-9.7976.0981-5.6357 7.1769 3.5979 17.732 11.739 11.82l328.59-238.82c4.8868-3.5536 4.3809-10.576-.12426-13.698zm-202.77 40.464c-3.6417 4.8539-.99668 12.278 5.4316 13.304l56.779 9.0727 11.059-9.84-69.78-11.15c-1.3335-.21277-2.5029-.70198-3.4898-1.386z" opacity=".3"/></g><path d="m260.63 136.1c-35.414.0127-67.782 20.03-83.617 51.707l16.768 8.3828c12.654-25.337 38.528-41.355 66.848-41.387 28.329.0127 54.221 16.026 66.885 41.369l16.658-8.3281c-15.811-31.668-48.146-51.696-83.541-51.744zm-.002 37.406c-21.252.01-40.674 12.021-50.172 31.031l16.748 8.3652c6.3257-12.67 19.262-20.678 33.424-20.693 14.165.005 27.109 8.0087 33.443 20.676l16.676-8.3301c-9.4856-19.001-28.883-31.017-50.119-31.049zm-.13478 36.93c-9.8121 0-15.945 6.3383-15.945 16.15 0 9.8121 6.1332 15.943 15.945 15.943 9.8121 0 16.148-6.1313 16.148-15.943 0-9.8121-6.3364-16.15-16.148-16.15z" opacity=".3" stroke-width="5.1105"/><path d="m260.63 130.1c-35.414.0127-67.782 20.03-83.617 51.707l16.768 8.3828c12.654-25.337 38.528-41.355 66.848-41.387 28.329.0127 54.221 16.026 66.885 41.369l16.658-8.3281c-15.811-31.668-48.146-51.696-83.541-51.744zm-.002 37.406c-21.252.01-40.674 12.021-50.172 31.031l16.748 8.3652c6.3257-12.67 19.262-20.678 33.424-20.693 14.165.005 27.109 8.0087 33.443 20.676l16.676-8.3301c-9.4856-19.001-28.883-31.017-50.119-31.049zm-.13478 36.93c-9.8121 0-15.945 6.3383-15.945 16.15 0 9.8121 6.1332 15.943 15.945 15.943 9.8121 0 16.148-6.1313 16.148-15.943 0-9.8121-6.3364-16.15-16.148-16.15zm-114.27 7.9726-51.922 141.87h28.006l11.652-35.568h54.375l11.652 35.568h29.23l-49.264-141.87h-33.73zm159.24 0v141.87h26.371v-52.945h23.916l30.254 52.945h31.686l-35.568-58.465c16.353-7.7679 26.574-22.894 26.574-42.109 0-26.166-19.216-41.293-50.287-41.293h-52.945zm-144.12 22.691 19.42 60.098h-39.043zm170.49.20312h23.1c16.558 0 26.369 8.3815 26.369 22.486 0 13.287-8.1764 21.26-22.895 21.26h-26.574zm-84.426 19.625v99.348h25.961v-99.348z" fill="#fff" stroke-width="5.1105"/><path d="m331.84 291.33v10h23.916l30.254 52.945h31.686l-6.084-10h-25.602l-30.254-52.945zm-197.88 17.377-11.652 35.568h-24.346l-3.6602 10h28.006l11.652-35.568h54.375l11.652 35.568h29.23l-3.4726-10h-25.758l-11.652-35.568zm113.45 35.568v10h25.961v-10zm58.055 0v10h26.371v-10z" opacity=".3" stroke-width="5.1105"/></svg>