<svg viewBox="0 0 512 512" xmlns="http://www.w3.org/2000/svg" xmlns:xlink="http://www.w3.org/1999/xlink"><filter id="a" color-interpolation-filters="sRGB" height="1.1257" width="1.108" x="-.054001" y="-.062826"><feGaussianBlur stdDeviation="10.57514"/></filter><path d="m381.44 58.01c-24.048.0024-43.542 19.497-43.545 43.545v35.68h-273.35c-24.048.00299-43.542 19.497-43.545 43.545v145.24c.0024 24.048 19.497 43.542 43.545 43.545h171.24c4.4145 10.267 12.607 18.443 22.883 22.838v26.043c.003 24.048 19.497 43.542 43.545 43.545h66.016c24.048-.003 43.542-19.497 43.545-43.545v-25.998c10.268-4.4142 18.446-12.607 22.842-22.883h12.838c24.048-.003 43.542-19.497 43.545-43.545v-224.46c-.003-24.048-19.497-43.542-43.545-43.545z" filter="url(#a)" opacity=".3" transform="matrix(.98318 0 0 .98318 4.3067 .37299)"/><g stroke-width=".98318"><path d="m379.33 53.475c-23.644.0024-42.81 19.169-42.813 42.813v35.079h-268.75c-23.644.003-42.81 19.169-42.813 42.813v142.8c.0024 23.644 19.169 42.81 42.813 42.813h168.36c4.3402 10.094 12.395 18.134 22.498 22.455v25.605c.003 23.644 19.169 42.81 42.813 42.813h64.906c23.644-.003 42.81-19.169 42.813-42.813v-25.562c10.095-4.34 18.135-12.395 22.457-22.498h12.623c23.644-.003 42.81-19.169 42.813-42.813v-220.68c-.00295-23.644-19.169-42.81-42.813-42.813z"/><path d="m379.33 96.286v77.892h-311.56v142.8h207.71v25.965h25.965v64.909h64.907v-64.909h25.965v-25.965h51.927v-220.68z"/><path d="m392.31 83.304v12.982h38.945v-12.982h-25.962zm-25.965 25.965v51.927h12.982v-51.927zm77.892 0v51.927h12.982v-51.927zm-363.49 51.927v12.982h116.83v-12.982h-103.85zm155.78 0v12.982h116.84v-12.982h-103.85zm-181.74 25.965v51.927h12.982v-51.927zm155.78 0v51.927h12.982v-51.927zm155.78 0v51.927h12.982v-51.927zm77.892 0v51.927h12.982v-51.927zm-285.6 25.962v12.982h38.947v-12.982h-25.965zm-77.889 25.965v12.98h38.945v-12.98h-25.965zm-25.965 25.962v51.927h12.982v-51.927zm155.78 0v51.927h12.982v-51.927zm155.78 0v51.927h12.982v-51.927zm77.892 0v51.927h12.982v-51.927zm-363.49 64.909v12.982h116.84v-12.982h-103.85zm155.78 0v12.982h38.947v-12.982h-25.965zm155.78 0v12.982h38.945v-12.982h-25.962zm-103.85 25.965v51.927h12.982v-51.927zm77.889 0v51.927h12.982v-51.927zm-51.927 64.907v12.982h38.947v-12.982h-25.965z" fill="#d41919"/><path d="m392.31 83.304v12.982h38.945v-12.982h-25.962zm-25.965 25.965v51.927h12.982v-51.927zm77.892 0v51.927h12.982v-51.927zm-363.49 51.927v12.982h116.83v-12.982h-103.85zm155.78 0v12.982h116.84v-12.982h-103.85zm-181.74 25.965v51.927h12.982v-51.927zm155.78 0v51.927h12.982v-51.927zm155.78 0v51.927h12.982v-51.927zm77.892 0v51.927h12.982v-51.927zm-285.6 25.962v12.982h38.947v-12.982h-25.965zm-77.889 25.965v12.98h38.945v-12.98h-25.965zm-25.965 25.962v51.927h12.982v-51.927zm155.78 0v51.927h12.982v-51.927zm155.78 0v51.927h12.982v-51.927zm77.892 0v51.927h12.982v-51.927zm-363.49 64.909v12.982h116.84v-12.982h-103.85zm155.78 0v12.982h38.947v-12.982h-25.965zm155.78 0v12.982h38.945v-12.982h-25.962zm-103.85 25.965v51.927h12.982v-51.927zm77.889 0v51.927h12.982v-51.927zm-51.927 64.907v12.982h38.947v-12.982h-25.965z" opacity=".3"/><path d="m392.31 70.322v12.982h38.945v-12.982h-25.962zm-25.965 25.965v51.927h12.982v-51.927zm77.892 0v51.927h12.982v-51.927zm-363.49 51.927v12.982h116.83v-12.982h-103.85zm155.78 0v12.982h116.84v-12.982h-103.85zm-181.74 25.965v51.927h12.982v-51.927zm155.78 0v51.927h12.982v-51.927zm155.78 0v51.927h12.982v-51.927zm77.892 0v51.927h12.982v-51.927zm-285.6 25.962v12.982h38.947v-12.982h-25.965zm-77.889 25.965v12.98h38.945v-12.98h-25.965zm-25.965 25.962v51.927h12.982v-51.927zm155.78 0v51.927h12.982v-51.927zm155.78 0v51.927h12.982v-51.927zm77.892 0v51.927h12.982v-51.927zm-363.49 64.909v12.982h116.84v-12.982h-103.85zm155.78 0v12.982h38.947v-12.982h-25.965zm155.78 0v12.982h38.945v-12.982h-25.962zm-103.85 25.965v51.927h12.982v-51.927zm77.889 0v51.927h12.982v-51.927zm-51.927 64.907v12.982h38.947v-12.982h-25.965z" fill="#d41919"/><path d="m288.46 226.1v12.981h-12.983v12.983h12.983v12.983h12.983v-12.983h12.983v-12.983h-12.983v-12.981z" fill="#d41919"/><path d="m288.46 226.1v12.981h-12.983v12.983h12.983v12.983h12.983v-12.983h12.983v-12.983h-12.983v-12.981z" opacity=".3"/><path d="m288.46 213.12v12.981h-12.983v12.983h12.983v12.983h12.983v-12.983h12.983v-12.983h-12.983v-12.981z" fill="#d41919"/></g></svg>