<svg viewBox="0 0 512 512" xmlns="http://www.w3.org/2000/svg" xmlns:xlink="http://www.w3.org/1999/xlink"><filter id="a" color-interpolation-filters="sRGB" height="1.1194" width="1.113" x="-.056524" y="-.059724"><feGaussianBlur stdDeviation="10.598424"/></filter><linearGradient id="b" gradientUnits="userSpaceOnUse" x1="102.686244" x2="539.083868" y1="268.069182" y2="268.069182"><stop offset="0" stop-color="#fd3535"/><stop offset="1" stop-color="#fd7d00"/></linearGradient><path d="m255.67 43.053a20.457 20.283 0 0 0 -.38086.0078 20.457 20.283 0 0 0 -3.3535.36523l-204.39 39.49a20.457 20.283 0 0 0 -16.545 19.92v306.66a20.457 20.283 0 0 0 .0039.3711 20.457 20.283 0 0 0 0 .004 20.457 20.283 0 0 0 0 .002 20.457 20.283 0 0 0 .0098.37304 20.457 20.283 0 0 0 0 .002 20.457 20.283 0 0 0 0 .004 20.457 20.283 0 0 0 .01758.3711 20.457 20.283 0 0 0 0 .004 20.457 20.283 0 0 0 0 .002 20.457 20.283 0 0 0 .02539.37109 20.457 20.283 0 0 0 0 .004 20.457 20.283 0 0 0 0 .002 20.457 20.283 0 0 0 .03125.37109 20.457 20.283 0 0 0 0 .002 20.457 20.283 0 0 0 0 .004 20.457 20.283 0 0 0 .03906.36914 20.457 20.283 0 0 0 0 .004 20.457 20.283 0 0 0 0 .002 20.457 20.283 0 0 0 .04687.36914 20.457 20.283 0 0 0 0 .004 20.457 20.283 0 0 0 0 .004 20.457 20.283 0 0 0 .05273.36718 20.457 20.283 0 0 0 0 .004 20.457 20.283 0 0 0 .12695.74805 20.457 20.283 0 0 0 .07422.36718 20.457 20.283 0 0 0 .16797.74024 20.457 20.283 0 0 0 .0957.36328 20.457 20.283 0 0 0 0 .002 20.457 20.283 0 0 0 .10156.36133 20.457 20.283 0 0 0 15.795 14.328l204.37 39.16a20.457 20.283 0 0 0 4.043.37305v-.004c1.246-.008 2.4878-.13576 3.7109-.37109l204.7-39.162c7.8251-1.4937 13.886-7.2894 15.883-14.627.00033-.001-.00034-.003 0-.004.3067-1.1277.51867-2.292.625-3.4824.00005-.00064-.00006-.001 0-.002.0532-.59515.0801-1.1976.0801-1.8047v-296.75c.00012.0296.004.0583.004.0879v-10c.001-2.4286-.43419-4.7713-1.2344-6.9492-.56661-1.5422-1.325-2.996-2.2363-4.3438-.0539-.07972-.0993-.16521-.1543-.24414-.32725-.46968-.6754-.92479-1.041-1.3652-.001-.0014-.003-.0025-.004-.0039-.70809-.85198-1.4896-1.6443-2.3301-2.373-.0306-.02657-.0571-.0576-.0879-.08398-.43611-.37385-.88921-.7292-1.3574-1.0664-.002-.0014-.004-.0025-.006-.0039-.46879-.33738-.9523-.65496-1.4512-.95312-1.0005-.59795-2.0609-1.1138-3.1699-1.5391-1.1116-.42625-2.2726-.76352-3.4766-.99609l-204.7-39.489c-.83299-.1555-1.6763-.24101-2.5215-.29297-.41151-.02696-.82285-.06192-1.2363-.0625a20.457 20.283 0 0 0 -.33008-.01563z" filter="url(#a)" opacity=".3" transform="matrix(1.0222 0 0 1.0222 -5.6874 -5.6862)"/><path d="m256 38.346v435.33c1.2743-.008 2.5449-.13964 3.7959-.38032l209.25-40.031c9.8447-1.8792 16.959-10.421 16.957-20.362v-313.47c.005-9.9266-7.0859-18.464-16.912-20.362l-209.25-40.367c-1.2664-.2364-2.5521-.35625-3.8407-.35806z" fill="url(#b)" stroke-width="8.2141"/><path d="m375.1 106.04v57.067l-69.656 70.253h69.656v57.499h64.892l-64.892 78.466v48.853" fill="none" opacity=".3" stroke="#000" stroke-width="24.642"/><path d="m375.1 95.823v57.067l-69.656 70.253h69.656v57.499h64.892l-64.892 78.466v48.853" fill="none" stroke="#fdfdfd" stroke-width="24.642"/><g stroke-width="8.2141"><path d="m255.66 38.324a20.911 20.733 0 0 0 -3.8184.38031l-208.93 40.367a20.911 20.733 0 0 0 -16.912 20.362v313.47a20.911 20.733 0 0 0 16.957 20.362l208.91 40.031a20.911 20.733 0 0 0 4.1328.3804v-435.33a20.911 20.733 0 0 0 -.33695-.02235z" fill="#272a34"/><path d="m26.001 402.67v10.222a20.911 20.733 0 0 0 16.958 20.36l208.9 40.027a20.911 20.733 0 0 0 4.1387.38332c1.2743-.008 2.5344-.14183 3.7853-.38332l209.26-40.03c9.8448-1.8788 16.959-10.418 16.958-20.358v-10.222c.001 9.9404-7.1135 18.479-16.958 20.358l-209.26 40.03c-1.251.2415-2.511.37716-3.7853.38534a20.911 20.733 0 0 1 -4.1387-.38534l-208.9-40.03a20.911 20.733 0 0 1 -16.958-20.358z" opacity=".3"/><path d="m255.66 38.323a20.911 20.733 0 0 0 -3.8173.38532l-208.93 40.365a20.911 20.733 0 0 0 -16.91 20.358v10.222a20.911 20.733 0 0 1 16.91-20.358l208.93-40.365a20.911 20.733 0 0 1 3.8173-.38532 20.911 20.733 0 0 1 .3374.01598c1.2886.0018 2.5689.13295 3.8353.36935l209.26 40.365c9.8269 1.8978 16.915 10.432 16.91 20.358v-10.222c.005-9.9265-7.0835-18.46-16.91-20.358l-209.26-40.365c-1.2664-.23649-2.5466-.36754-3.8353-.36935a20.911 20.733 0 0 0 -.3374-.01598z" fill="#fff" opacity=".2"/><path d="m255.66 38.324a20.911 20.733 0 0 0 -3.8184.38031l-208.93 40.367a20.911 20.733 0 0 0 -16.912 20.362v313.47a20.911 20.733 0 0 0 16.957 20.362l208.91 40.031a20.911 20.733 0 0 0 4.1328.3804v-435.33a20.911 20.733 0 0 0 -.33695-.02235z" opacity=".3"/><path d="m26.001 402.72v10.184a20.911 20.733 0 0 0 16.958 20.36l208.9 40.027a20.911 20.733 0 0 0 4.1387.38333c.00066-.00001.001 0 .002 0v-10.22h-.002a20.911 20.733 0 0 1 -4.1387-.38532l-208.9-40.03a20.911 20.733 0 0 1 -16.958-20.32z" opacity=".5"/></g></svg>